<svg width="64" height="64" viewBox="0 0 64 64" fill="none" xmlns="http://www.w3.org/2000/svg">
<path d="M32 1.28C14.355 1.28 0 14.03 0 29.695C0 37.265 3.295 44.345 9.295 49.71C8.185 52.985 5.34 55.24 3.225 56.915C1.285 58.45 -0.12 59.56 0.3 61.13L0.435 61.645L0.895 61.91C2.06 62.575 3.61 62.915 5.515 62.915C11.85 62.915 20.955 59.28 24.965 57.53C27.245 58.005 29.51 58.24 31.87 58.24C49.52 58.24 63.87 45.49 63.87 29.825C63.87 14.085 49.575 1.28 32 1.28ZM34.05 43.52C34.05 43.775 33.92 44.03 33.535 44.03H30.595V43.905C30.335 43.905 30.08 43.775 30.08 43.395V26.24C30.08 25.985 30.21 25.73 30.595 25.73H33.535C33.795 25.73 34.05 25.855 34.05 26.24V43.52ZM34.05 20.225C34.05 20.48 33.92 20.735 33.535 20.735H30.465C30.21 20.735 29.955 20.61 29.955 20.225V16.895C29.955 16.64 30.08 16.385 30.465 16.385H33.535C33.795 16.385 34.05 16.51 34.05 16.895V20.225Z" fill="white"/>
</svg>
