<svg width="16" height="16" viewBox="0 0 16 16" fill="none" xmlns="http://www.w3.org/2000/svg">
<path fill-rule="evenodd" clip-rule="evenodd" d="M0 4.64423C0 2.08654 2.08654 0 4.64423 0H11.3558C13.9135 0 16 2.08654 16 4.64423V11.3558C16 13.9135 13.9135 16 11.3558 16H4.64423C2.08654 16 0 13.9135 0 11.3558V4.64423ZM11.3558 1.23077H4.64423C2.75 1.23077 1.23077 2.7524 1.23077 4.64423V11.3558C1.23077 13.25 2.7524 14.7692 4.64423 14.7692H11.3558C13.25 14.7692 14.7692 13.2476 14.7692 11.3558V4.64423C14.7692 2.75 13.2476 1.23077 11.3558 1.23077ZM3.69231 8C3.69231 5.6274 5.6274 3.69231 8 3.69231C10.3726 3.69231 12.3077 5.6274 12.3077 8C12.3077 10.3726 10.3726 12.3077 8 12.3077C5.6274 12.3077 3.69231 10.3726 3.69231 8ZM11.0769 8C11.0769 6.29327 9.70675 4.92308 8 4.92308C6.29327 4.92308 4.92308 6.29327 4.92308 8C4.92308 9.70675 6.29327 11.0769 8 11.0769C9.70675 11.0769 11.0769 9.70675 11.0769 8Z" fill="white"/>
<path d="M12.6153 2.46155C12.1058 2.46155 11.6923 2.87501 11.6923 3.38463C11.6923 3.89425 12.1058 4.30771 12.6153 4.30771C13.125 4.30771 13.5384 3.89425 13.5384 3.38463C13.5384 2.87501 13.125 2.46155 12.6153 2.46155Z" fill="white"/>
</svg>
