<svg width="64" height="64" viewBox="0 0 64 64" fill="none" xmlns="http://www.w3.org/2000/svg">
<path d="M50.0645 56.7288H13.9355C12.7954 56.7288 11.871 55.8044 11.871 54.6643V48.552C11.871 45.6403 13.5889 42.9916 16.2477 41.8045C23.9806 38.3516 23.5568 38.4684 24.1594 38.4684H26.6132C27.5634 38.4684 28.3908 39.1169 28.6179 40.0396C29.4834 43.5565 34.5164 43.5582 35.3822 40.0396C35.6093 39.117 36.4368 38.4684 37.387 38.4684C40.0277 38.4684 40.1634 38.416 40.6824 38.6477L47.7524 41.8045C50.4111 42.9916 52.1292 45.6403 52.1292 48.552V54.6643C52.129 55.8044 51.2046 56.7288 50.0645 56.7288ZM32.0504 8C25.0969 8 19.4399 13.657 19.4399 20.6106C19.4399 27.5641 25.0969 33.2212 32.0504 33.2212C39.004 33.2212 44.661 27.5641 44.661 20.6106C44.661 13.657 39.004 8 32.0504 8ZM12.1572 21.4885C7.77897 21.4885 4.21703 25.0504 4.21703 29.4288C4.21703 33.807 7.77897 37.3689 12.1572 37.3689C16.5355 37.3689 20.0974 33.807 20.0974 29.4288C20.0973 25.0504 16.5354 21.4885 12.1572 21.4885ZM51.8428 21.4885C47.4645 21.4885 43.9026 25.0504 43.9026 29.4288C43.9026 33.807 47.4645 37.3689 51.8428 37.3689C56.221 37.3689 59.783 33.807 59.783 29.4288C59.783 25.0504 56.221 21.4885 51.8428 21.4885ZM61.0193 40.4018C56.7236 38.4834 56.8265 38.4637 56.2387 38.4637C53.1635 38.4637 51.1517 38.4422 49.791 38.4355C48.4384 38.4288 47.9904 40.2428 49.1889 40.8697C50.1702 41.383 50.7659 41.8208 51.4735 42.5929C53.5385 44.8356 53.7308 47.2092 53.7304 49.177C53.7303 49.8897 54.3077 50.4664 55.0204 50.4664H61.9355C63.0761 50.4664 64 49.5413 64 48.4019V44.9966C64 43.0134 62.8297 41.2108 61.0193 40.4018ZM7.76129 38.4637C7.17626 38.4637 7.29136 38.4766 2.98065 40.4018C1.17032 41.2108 0 43.0134 0 44.9966V48.4018C0 49.5412 0.923871 50.4663 2.06452 50.4663H8.9791C9.69213 50.4663 10.2699 49.8888 10.269 49.1759C10.2667 47.201 10.4534 44.8444 12.5265 42.5928C13.2306 41.8244 13.8314 41.3827 14.791 40.8786C15.987 40.2503 15.545 38.4415 14.1941 38.4439C12.8252 38.4462 10.8137 38.4637 7.76129 38.4637Z" fill="white"/>
</svg>
