<svg width="64" height="64" viewBox="0 0 64 64" fill="none" xmlns="http://www.w3.org/2000/svg">
<path d="M33.875 5.875C33.875 4.83936 33.0356 4 32 4C30.9644 4 30.125 4.83936 30.125 5.875V13.9082C30.125 14.9438 30.9644 15.7832 32 15.7832C33.0356 15.7832 33.875 14.9438 33.875 13.9082V5.875Z" fill="white"/>
<path d="M22.6411 17.2427C23.0068 17.6084 23.4868 17.792 23.9668 17.792C24.4463 17.792 24.9263 17.6089 25.2925 17.2427C26.0244 16.5103 26.0244 15.3232 25.2925 14.5908L21.2754 10.5742C20.5435 9.8418 19.3564 9.8418 18.624 10.5742C17.8916 11.3066 17.8916 12.4937 18.624 13.2261L22.6411 17.2427Z" fill="white"/>
<path d="M40.0332 17.7915C40.5132 17.7915 40.9932 17.6084 41.3589 17.2422L45.376 13.2256C46.1079 12.4937 46.1079 11.3062 45.376 10.5742C44.6436 9.8418 43.4565 9.8418 42.7241 10.5742L38.7075 14.5908C37.9751 15.3232 37.9751 16.5103 38.7075 17.2422C39.0737 17.6084 39.5537 17.7915 40.0332 17.7915Z" fill="white"/>
<path d="M26.5757 22.1143C26.5562 22.1304 26.5376 22.146 26.52 22.1607L18.4136 29.1099C17.6626 29.7534 16.7026 30.1084 15.7124 30.1084H9.90625C4.43506 30.1084 0 34.5357 0 40.0147V58.0923C0 59.1275 0.839355 59.9673 1.875 59.9673H17.9414C18.9775 59.9673 19.8164 59.127 19.8164 58.0923V40.8794L29.3574 32.7012C29.8447 32.2837 30.125 31.6739 30.125 31.0322V23.8335C30.125 22.0025 27.998 20.961 26.5757 22.1143Z" fill="white"/>
<path d="M54.0938 30.1084H48.2876C47.2974 30.1084 46.3374 29.7534 45.5864 29.1094L37.48 22.1607C37.4624 22.146 37.4438 22.1304 37.4243 22.1143C36.002 20.961 33.875 22.0025 33.875 23.8335V31.0322C33.875 31.6739 34.1553 32.2837 34.6426 32.7012L44.1836 40.8794V58.0918C44.1836 59.127 45.0225 59.9668 46.0586 59.9668H62.125C63.1606 59.9668 64 59.1275 64 58.0918V40.0147C64 34.5357 59.5649 30.1084 54.0938 30.1084Z" fill="white"/>
<path d="M17.8081 22.208C17.8081 17.8521 14.2642 14.3081 9.9082 14.3081C5.55225 14.3081 2.0083 17.8521 2.0083 22.208C2.0083 26.5645 5.55225 30.1084 9.9082 30.1084C14.2642 30.1084 17.8081 26.5645 17.8081 22.208Z" fill="white"/>
<path d="M61.9917 22.208C61.9917 17.8521 58.4478 14.3081 54.0918 14.3081C49.7358 14.3081 46.1919 17.8521 46.1919 22.208C46.1919 26.5645 49.7358 30.1084 54.0918 30.1084C58.4478 30.1084 61.9917 26.5645 61.9917 22.208Z" fill="white"/>
</svg>
