<svg width="16" height="16" viewBox="0 0 16 16" fill="none" xmlns="http://www.w3.org/2000/svg">
<path fill-rule="evenodd" clip-rule="evenodd" d="M0 2.97727C0 1.34659 1.34659 0 2.97727 0H13.0227C14.6534 0 16 1.34659 16 2.97727V13.0227C16 14.6534 14.6534 16 13.0227 16H2.97727C1.34659 16 0 14.6534 0 13.0227V2.97727ZM13.0227 1.45455H2.97727C2.13352 1.45455 1.45455 2.13352 1.45455 2.97727V13.0227C1.45455 13.8665 2.13352 14.5455 2.97727 14.5455H13.0227C13.8665 14.5455 14.5455 13.8665 14.5455 13.0227V2.97727C14.5455 2.13352 13.8665 1.45455 13.0227 1.45455Z" fill="white"/>
<path fill-rule="evenodd" clip-rule="evenodd" d="M5.15906 4.04547V11.9546H8.43177C9.92611 11.9546 11.5227 11.304 11.5227 9.52277C11.5227 8.07957 10.3977 7.71592 9.90909 7.61365V7.59093C10.2471 7.44885 11 6.96591 11 5.88638C11 4.72445 10.2159 4.04547 8.24995 4.04547H5.15906ZM8.11363 5.50002H7.18179V7.18184C7.18179 7.18184 7.99997 7.15912 8.13635 7.15912C8.6079 7.15912 8.97725 6.80968 8.97725 6.29547C8.97725 6.16763 8.93462 5.50002 8.11363 5.50002ZM8.38633 8.52277C8.17609 8.51707 7.18179 8.52277 7.18179 8.52277V10.5C7.18179 10.5 8.16758 10.5086 8.36361 10.5C8.55965 10.4915 9.47721 10.4261 9.47721 9.50005C9.47721 8.57103 8.59657 8.5284 8.38633 8.52277Z" fill="white"/>
</svg>
